<?xml version="1.0" encoding="UTF-8"?><svg id="b" xmlns="http://www.w3.org/2000/svg" viewBox="0 0 15 16.0000064"><defs><style>.d{fill:#496ec2;stroke-width:0px;}</style></defs><g id="c"><path class="d" d="M14.75,2h-3.75v-1c0-.5522847-.4477148-1-1-1h-5c-.5522847,0-1,.4477153-1,1v1H.25c-.1380712,0-.25.1119287-.25.25v.5c0,.1380713.1119288.25.25.25h1l1.207,12.5499992c.0257707.2564507.2422607.451292.5.4500008h9.0889995c.2577391.0012913.4742298-.1935501.5-.4500008l1.2040005-12.5499992h1c.1380711,0,.25-.1119287.25-.25v-.5c0-.1380713-.1119289-.25-.25-.25ZM4.5320001,13.5c-.2752423.0182896-.5132976-.189786-.5320001-.4650002h0l-.5360003-8c-.0185013-.2761426.1903577-.5149984.4665003-.5334997.2761421-.0185018.514998.1903572.5334997.4664998l.5349998,8.0000005c.0188584.2754974-.189189.5141201-.4646869.532979-.0001044.0000067-.0002089.0000143-.0003133.000021l-.0019994-.0010004ZM8,13c0,.2761421-.2238579.5-.5.5s-.5-.2238579-.5-.5V5c0-.2761426.2238579-.5.5-.5s.5.2238574.5.5v8ZM10,2h-5v-1h5v1ZM11,13.0340004c-.0185013.2761421-.2573576.4850016-.5334997.4664993-.2761431-.0185013-.4850016-.2573576-.4665003-.5334997l.5349998-8c.0185013-.2761426.2573576-.4850016.5334997-.4664998.2761431.0185013.4850016.2573571.4665003.5334997l-.5349998,8.0000005Z"/></g></svg>