<svg xmlns="http://www.w3.org/2000/svg" version="1.1" viewBox="0 0 18 18">
<defs>
  <style>
    .cls-1 {
      fill: #496ec2;
    }
  </style>
</defs>
  <path class="cls-1" d="M17,3h-2.5v-1.5c0-.3-.2-.5-.5-.5h-1c-.3,0-.5.2-.5.5v1.5h-7v-1.5c0-.3-.2-.5-.5-.5h-1c-.3,0-.5.2-.5.5v1.5H1c-.3,0-.5.2-.5.5v13c0,.3.2.5.5.5h16c.3,0,.5-.2.5-.5V3.5c0-.3-.2-.5-.5-.5ZM16.5,16H1.5V4h2v.5c0,.3.2.5.5.5h1c.3,0,.5-.2.5-.5v-.5h7v.5c0,.3.2.5.5.5h1c.3,0,.5-.2.5-.5v-.5h2v12Z"/>
  <rect class="cls-1" x="3.5" y="6" width="2" height="2"/>
  <rect class="cls-1" x="6.5" y="6" width="2" height="2"/>
  <rect class="cls-1" x="9.5" y="6" width="2" height="2"/>
  <rect class="cls-1" x="12.5" y="6" width="2" height="2"/>
  <rect class="cls-1" x="3.5" y="9" width="2" height="2"/>
  <rect class="cls-1" x="6.5" y="9" width="2" height="2"/>
  <rect class="cls-1" x="9.5" y="9" width="2" height="2"/>
  <rect class="cls-1" x="12.5" y="9" width="2" height="2"/>
  <rect class="cls-1" x="3.5" y="12" width="2" height="2"/>
  <rect class="cls-1" x="6.5" y="12" width="2" height="2"/>
  <rect class="cls-1" x="9.5" y="12" width="2" height="2"/>
  <rect class="cls-1" x="12.5" y="12" width="2" height="2"/>
</svg>